<?xml version="1.0" encoding="UTF-8"?><svg xmlns="http://www.w3.org/2000/svg" id="a" version="1.1" viewBox="0 0 1200 545" width="1024px" height="465.066667px" preserveAspectRatio="none" style="width: 1024px; height: 465.066667px;">
  <!-- Generator: Adobe Illustrator 30.3.0, SVG Export Plug-In . SVG Version: 2.1.3 Build 182)  -->
  <defs>
    <style>
      .st0 {
        fill: #fff;
      }
    </style>
  </defs>
  <path d="M1131.43,466.71c-7.62-7.85-18.08,7.77-24.32,7.77h-18.49l-1-1.96c63.78-30.59,56.23-128.61-14.82-144.69-26.7-6.05-63.09,1.44-81.57,23.1-31.61,37.05-21.06,98.98,23.2,120.8,2.99,1.48,8.37,1.02,8.45,4.69l-27.7,2.98c-21.74.14-36.81-2.28-56.68-10.59-4.02-1.67-29.64-13.35-30.34-15.41,2.15-21.87-6.57-54.55,7.79-72.63,12.78-16.08,31.38-14.9,49.82-11.27.62-.16,1.63-2.34,1.63-2.52v-35.02c-2.11-2.79-5.95-3.15-9.22-3.43-20.49-1.74-38.19,5.25-49.69,22.39-1.89-1.22-1.07-1.56-1.01-2.9.21-4.75,2.04-11.69-.94-15.57h-39.44v100.67c0,.14-1.12,2.5-1.43,2.41l-17.93-8.41c1.01-24.63-.29-49.66-14.89-70.65-31.49-45.25-107.84-33.52-132.75,12.93-3.19,5.91-4.77,12.53-8.26,18.08l-36.01-3.97-3.12-3.69-51.82-119.41c-.58-.56-1.28-.73-2.05-.88-4.67-.89-26.96-.7-32.16-.07-1.08.13-2.13.01-2.88,1.01l-54.45,122.65c-9.47,2.44-19.46,2.45-29.14,3.95-13.07,2.03-27.4,6.45-39.81,8-.7.09-1.32.48-1.95.03,1.23,4.99,1.22,10.75-3.74,12.78-7.53,3.09-19.6,2.22-23.37-6.68-.07.68-.31,1.3-.86,1.81-56.21,17.34-107.22,46.85-168.03,44.27-53.27-2.26-80.86-17-120.21-50.15-.77-.64-1.95-2.54-2.92-.96,5.38,7.54,12.47,15.28,19.42,21.45,42.96,38.15,105.66,49.35,161.7,39.87,33.75-5.71,66.1-18.74,99.08-27.48,31.45-8.32,63.97-15.04,96.6-15.83l-31.06,70.62c-.81,2.13,4.16,2.3,5.22,2.37,10.16.65,30.32,1.16,40.03,0,1.07-.13,2.13-.02,2.89-1l30.63-73.49,71.58-3.38,2.34,1.56,32.23,76.26h47.23l1.31-2.25-31.6-72.59c-.49-3.03,9.56-2.14,11.83-2.05,3.55.15,7.22,1.56,11.03,1.15,1.49,11.81,2.79,22.63,7.76,33.6,10.5,23.17,30.71,36.87,54.66,43.63,3.01.86,9.03,3.01,10.44,3.35,6.55,1.52,20.3.01,25.95-2.07,9.88-3.66,17.93-3.46,28.54-9.4,4.2-2.34,18.97-12.15,17.92-17.03-4.96-2.2-23.67-20.8-26.89-21.11-2.91-.29-4.23,2.89-6.36,4.34-20.55,14.09-51.26,16.82-65.32-7.53-2.05-3.56-9.26-21.17-4.07-22.91,2.93-.97,29.21,4.22,34.44,5.22,27.1,5.11,71.06,14.88,95.66,26.01,1.83.83,3.36,1.5,4.6,3.19v36.48h39.92c-.31-.96.97-2.11.97-2.43v-18.97c22.37,6.6,42.63,18.5,65.86,22.24,17.31,2.79,38.82,2.35,56.07-1.1,9.69-1.95,21.62-8.55,18.08-20.46-.7-2.32-16.46-14.48-19.77-18.18-28.39-31.68-22.95-100.01,30.23-95.37,42.41,3.7,39.42,67.77,17.95,93.88-3.84,4.67-18.86,16.67-18.98,21.41-.25,9.07,6.68,16.46,15.07,18.53,11.15,2.76,32.09,2.87,42.85-1.05,5.33-1.95,23.43-11.36,16.08-18.91v-.03ZM556.5,380.12l24.83-66.13,24.83,66.13h-49.66ZM806.74,413.19c-10.36-2.42-20.46-5.96-30.75-8.68-12.94-3.42-28.04-5.57-40.38-9.26-1.87-.56-3.85-1.18-4.68-3.11,3.19-11.15,7.9-21.94,18.5-27.93,14.83-8.39,41.07-6.03,51.31,8.77,1.23,1.78,6.01,12.08,6.01,13.47v26.74h-.01ZM410.39,394.76c0,.16.01.32.01.48,0,.17.02.34.05.53-.02-.33-.05-.66-.06-1.01Z"/>
  <path d="M90.64,356.39s68.6,104.86,162.5,89.08c93.9-15.78,179.83-58.21,237.34-62.07,57.52-3.86,109.14-16.83,258.13,13.33,150.37,35.07,163.54,73.29,219.67,80.66l-1,9.12s-145.39-61.02-222.83-69.44-213.61-18.94-345.62,11.05c-105.5,34.72-130.28,41.42-185.54,26.83-86.97-22.97-122.66-98.54-122.66-98.54v-.02Z"/>
  <path class="st0" d="M172.88,148.62c9.72-7.48,13.98-18.68,26.08-24.03,37.95-16.77,63.04,24.85,61.58,58.6-2.4,55.61-31.26,145.59-103.9,110.53-25.04-12.09-24.71-46.8-20.53-70.45,11.15-63.08,28.71-125.38,40.17-188.45,4.15-9.66,18.51.27,20.48,7.75,2.17,8.25-3.35,26.44-5.67,35.25-6.2,23.51-15.59,46.38-18.21,70.8h0ZM211.58,143.04c-30.69,4.26-53.38,66.98-55.25,93.62-1.6,22.78,5.66,58.57,36.67,47.34,33.68-12.2,51.3-101.7,38.03-130.74-3.85-8.42-10.23-11.49-19.45-10.21h0Z"/>
  <path class="st0" d="M357.63,122.6c19.98-2.51,41.32,18.29,48.78,35.39,22.54,51.68-13.01,153.82-78.23,154.11-97.84.44-36.26-181.25,29.44-189.5h.01ZM356.64,147.88c-20.43,3.85-39.27,38.56-45.68,56.5-7.71,21.58-19.96,83.65,13.55,88.94,53.1,8.38,75.75-89.15,63.73-126.89-5.02-15.76-15.01-21.68-31.6-18.55Z"/>
  <path class="st0" d="M562.88,163.15c-6.02-25.16-21.4-38.94-48.51-34.72-11.35,1.77-20.95,12.25-28.48,20.17-32.16,33.86-47.59,66.88-56.68,112.62-7.34,36.9-18.39,87.41-18.87,125.93v.07c-.07,2.67-.07,5.24.05,7.54.01.34.03.68.06,1.01,0,.06,0,.1.01.15.09,1.56.25,2.97.47,4.2.13.38.26.75.41,1.09,3.77,8.91,15.84,9.78,23.37,6.68,4.95-2.03,4.96-7.79,3.74-12.78-.1-.07-.19-.16-.3-.28-4.53-8.64-4.71-18.59-4.09-28.33.19-3.11.48-6.2.73-9.22,1.91-23.07,6.55-47.08,11.69-69.57,1.94-1.62,8.09,7,10.19,8.78,26.82,22.75,62.49,1.24,79.02-23.23,17.7-26.21,34.43-79.77,27.19-110.11h0ZM539.69,203.31c-4.32,24.79-24.27,87.74-55.67,87.35-17.92-.23-17.27-14.28-25.05-25.65-1.52-2.24-7.12-6.64-7.46-8.13-.55-2.35,6.56-26.42,7.91-30.65,6.16-19.23,13.16-35.1,26.03-50.84,6.6-8.08,25.84-27.58,35.74-29.47,27.27-5.19,21.23,41.75,18.5,57.38h0Z"/>
  <path d="M103.88,295.81l-30.77,12.51c-2.89-5.19-6.29-10.46-10.55-14.65-1.29-1.27-5.12-5.06-5.99-1.7-1.07,4.09,2.78,15.09,4.54,19.1.19.43,1.34,2.61,1.21,2.8l-29.13,18.23c-1.33.97-2.1,2.44-2.1,4.09,0,.51.86,5.27,1.03,5.49.62.79,1.52-.76,2.19-1l5.54-2.59,4.04-1.89s.02.01.02.02l5.46-2.51h0l.17-.13c.23-.09.45-.18.68-.27h0c2.05-.82,4.09-1.8,6.12-2.82l.04-.02c3.41-1.7,6.8-3.49,10.21-4.76,1.88-.7,3-.48,4.35,1.08,2.78,3.21,5.62,7.78,8.18,11.31.33.46.7.92,1.11,1.31-.02.16-.13.26-.24.37-1.96,2.13-5.63,4.18-7.78,6.32-1.75,1.74-.36,2.86.52,4.61h.02l10.43-4.86.85-.43c.22.03.31.22.43.37,1.25,1.62,2.31,4.63,3.63,6.1.48.53.87.24.8-.4l-2.9-7.03c1.32-1.04,10.46-4.94,10.86-5.81.2-.45-.69-2.09-.99-2.52-.71-.98-1.17-1.09-2.36-.91l-9.99,2.61-4.63-14.24c-.65-1.82-.62-3.43,1.08-4.67l12.06-6.78,5.88-3.31h0s7.67-4.29,7.67-4.29h0l5.63-3.2,2.32-.87c.05-.13-.16-.42-.24-.55-.47-.7-3.2-3.61-3.85-4.02-1.84-1.18-3.66-.92-5.55-.09h0ZM76.41,319.52l-.36.23-.43-.36-4.4-9.27c-2.47-3.46-7.45-1.07-6.38,3.04l5.12,9.59c-.17.61-.48.27-.73-.07-1.14-1.55-2.43-3.99-3.46-5.72-1.93-3.26-5.67-8.35-3.08-12.11.82-1.19,2.91-1.85,4.26-1.38,3.31,1.16,4.54,4.44,5.83,7.34,1.27,2.86,2.43,5.8,3.63,8.7h0Z"/>
</svg>